Coordinates
version=1
nRows=22
nColumns=24
inDegrees=yes

Units are S.I. units (second, meters, Newtons, ...)
Angles are in degrees.

endheader
time	pelvis_tilt	pelvis_list	pelvis_rotation	pelvis_tx	pelvis_ty	pelvis_tz	hip_flexion_r	hip_adduction_r	hip_rotation_r	knee_angle_r	ankle_angle_r	subtalar_angle_r	mtp_angle_r	hip_flexion_l	hip_adduction_l	hip_rotation_l	knee_angle_l	ankle_angle_l	subtalar_angle_l	mtp_angle_l	lumbar_extension	lumbar_bending	lumbar_rotation
      5.98500000	     -7.20115723	     -1.84158716	     13.05293555	     -1.18966901	     -0.02344429	     -0.33258754	     31.13234513	     -5.17482107	    -12.61247499	    -11.24721747	     -1.39562529	      5.54255905	     12.52229401	     -5.37391227	     -1.11045619	     20.29171808	    -19.00521630	      6.03946921	      1.99296911	     16.43104835	      4.86417460	     -0.41491562	    -11.48386297
      5.99000000	     -7.30671421	     -1.88205734	     13.13584520	     -1.18302968	     -0.02405409	     -0.33166786	     31.12913927	     -5.16087832	    -12.95771710	    -11.62878631	     -2.28454153	      5.28145231	     14.02985695	     -5.41311133	     -1.30960081	     19.97662367	    -19.32668591	      5.38289176	      2.45588631	     17.69861549	      5.18273292	     -0.41022129	    -11.45221396
      5.99500000	     -7.37278673	     -2.05215890	     13.35048909	     -1.17641252	     -0.02452425	     -0.33092547	     31.07138569	     -5.07689624	    -13.43748542	    -12.05614885	     -2.83940484	      5.16994138	     14.13586942	     -5.41178821	     -1.63617069	     19.92255564	    -19.79903773	      5.04650427	      3.06104606	     17.92170321	      5.49080481	     -0.27472444	    -11.55346837
      6.00000000	     -7.46555766	     -2.24361381	     13.46465615	     -1.16975889	     -0.02500792	     -0.32999754	     31.08096649	     -4.91763702	    -13.80748652	    -12.49725150	     -3.51117226	      5.02713084	     14.46858459	     -5.34811826	     -1.99854351	     19.58730191	    -20.29831311	      4.67852112	      3.89502989	     18.45475155	      5.83623697	     -0.11598846	    -11.56265455
      6.00500000	     -7.55930519	     -2.37371410	     13.46696906	     -1.16315654	     -0.02541677	     -0.32893321	     31.10195035	     -4.73722943	    -13.86325564	    -12.86339899	     -4.70244436	      4.48427478	     15.81037664	     -5.32890906	     -2.29464837	     19.19548770	    -20.67195946	      3.84230624	      4.37845952	     19.91665592	      6.15601704	     -0.00126731	    -11.43791803
      6.01000000	     -7.61479727	     -2.62865476	     13.60006904	     -1.15661377	     -0.02568638	     -0.32804523	     31.10161594	     -4.50486544	    -14.15022687	    -13.33137605	     -5.35766899	      4.35690531	     15.94573999	     -5.23062622	     -2.72214765	     18.92994094	    -21.24644829	      3.39071421	      5.21557564	     20.34019015	      6.46197334	      0.23704211	    -11.48144746
      6.01500000	     -7.69387459	     -2.91064948	     13.62216683	     -1.15007066	     -0.02592998	     -0.32697200	     31.15414634	     -4.15721522	    -14.10895734	    -13.79004975	     -6.13422558	      3.99155375	     16.16224103	     -5.07413202	     -3.18155042	     18.42900908	    -21.84060115	      2.77113226	      6.06413059	     21.15541926	      6.79727409	      0.51200359	    -11.38829079
      6.02000000	     -7.77098795	     -3.21685829	     13.55871297	     -1.14347167	     -0.02605961	     -0.32584452	     31.22043963	     -3.71760405	    -13.84605762	    -14.24296461	     -7.02034966	      3.49690804	     16.50873990	     -4.95789660	     -3.65968680	     17.96430381	    -22.32289467	      1.78827814	      6.58589799	     22.59635137	      7.14711085	      0.83287879	    -11.23441381
      6.02500000	     -7.81185398	     -3.58228500	     13.55065122	     -1.13696579	     -0.02609096	     -0.32480845	     31.28065255	     -3.25246156	    -13.72236845	    -14.78376972	     -7.55150876	      3.35143583	     16.46778050	     -4.76849221	     -4.21054656	     17.44911383	    -23.00679779	      1.13946895	      7.57037772	     23.18076595	      7.45914491	      1.21965349	    -11.17026199
      6.03000000	     -7.86801233	     -3.92363147	     13.48105444	     -1.13048355	     -0.02607289	     -0.32359904	     31.35743127	     -2.72006735	    -13.19825695	    -15.31524884	     -8.12066451	      2.79928787	     16.24874371	     -4.53112242	     -4.74932846	     16.75719635	    -23.70501747	      0.22186804	      8.49702166	     24.23752663	      7.77603172	      1.57651208	    -11.04162668
      6.03500000	     -7.91588903	     -4.30693334	     13.35697508	     -1.12394196	     -0.02594313	     -0.32240154	     31.43623872	     -2.10310778	    -12.62466918	    -15.86109932	     -8.60412988	      2.25002680	     15.75287962	     -4.32008815	     -5.32390419	     16.12260040	    -24.32541827	     -1.04446308	      9.09968086	     25.85746234	      8.10266768	      2.00097785	    -10.85017553
      6.04000000	     -7.93018421	     -4.67502613	     13.24105487	     -1.11750819	     -0.02576890	     -0.32121058	     31.48656342	     -1.49418078	    -12.03886047	    -16.43811603	     -8.88717969	      1.83198612	     15.28326364	     -4.05639450	     -5.90155241	     15.37421162	    -25.12237300	     -2.11094783	     10.08364921	     26.89940601	      8.36668451	      2.41626300	    -10.71788544
      6.04500000	     -7.95491459	     -5.05756516	     13.07445948	     -1.11086692	     -0.02551951	     -0.31998246	     31.52311430	     -0.82040116	    -11.38651780	    -16.99418830	     -9.05195303	      1.29502567	     14.51196758	     -3.81282116	     -6.50300369	     14.58703981	    -25.84240684	     -3.47328217	     10.87401849	     28.22929779	      8.68599320	      2.85245664	    -10.51815462
      6.05000000	     -7.95250537	     -5.41005672	     12.90300917	     -1.10429801	     -0.02522496	     -0.31876015	     31.52071397	     -0.16433555	    -10.74139957	    -17.55374970	     -9.07283570	      0.81799680	     13.71974097	     -3.55084048	     -7.08542871	     13.75420681	    -26.64760861	     -4.86984296	     11.73791019	     29.42551434	      8.94926604	      3.26660723	    -10.32661180
      6.05500000	     -7.93178885	     -5.72253852	     12.72320236	     -1.09774909	     -0.02489580	     -0.31761843	     31.47344853	      0.44000567	    -10.18860115	    -18.08176395	     -9.05568405	      0.49016663	     13.43052696	     -3.27723144	     -7.62969266	     12.92307806	    -27.55931795	     -6.12354676	     12.83924218	     29.93975539	      9.18033352	      3.66162834	    -10.13882929
      6.06000000	     -7.92728326	     -5.99476938	     12.55983554	     -1.09127701	     -0.02452775	     -0.31631318	     31.39407114	      1.06656612	     -9.37727300	    -18.54368384	     -9.06923700	     -0.36775600	     12.48987294	     -2.96082830	     -8.14065998	     12.14550072	    -28.43764220	     -7.79433300	     13.58316487	     31.18970649	      9.39813425	      3.97100446	    -10.02163533
      6.06500000	     -7.90454734	     -6.26586159	     12.36247011	     -1.08471418	     -0.02413929	     -0.31513639	     31.27169923	      1.66326935	     -8.83169204	    -18.98544782	     -8.86977056	     -0.80845293	     11.84595962	     -2.65933314	     -8.65623243	     11.31416814	    -29.35258654	     -9.44448072	     14.37395180	     32.09998112	      9.61228591	      4.32224283	     -9.84125441
      6.07000000	     -7.88863909	     -6.50271797	     12.16254629	     -1.07811183	     -0.02373131	     -0.31395077	     31.10373771	      2.23117129	     -8.31650459	    -19.35294920	     -8.63003842	     -1.28298352	     11.31565175	     -2.34680584	     -9.12944222	     10.55635685	    -30.28654615	    -11.16515165	     15.05201311	     32.80663871	      9.83388132	      4.62610608	     -9.67012599
      6.07500000	     -7.87302478	     -6.75548713	     11.96649148	     -1.07155906	     -0.02329050	     -0.31289555	     30.90121228	      2.77672090	     -7.97110926	    -19.64509562	     -8.39985806	     -1.54140035	     11.12083428	     -1.99435295	     -9.59719586	      9.86613079	    -31.29764043	    -12.84567369	     15.57528789	     33.05029600	     10.05015439	      4.96865985	     -9.49790053
      6.08000000	     -7.87901605	     -6.91027870	     11.79182912	     -1.06514564	     -0.02287281	     -0.31170497	     30.67380254	      3.25074178	     -7.47108173	    -19.88472099	     -8.14406823	     -2.07263815	     10.76491710	     -1.59450349	     -9.97116770	      9.22897233	    -32.31338009	    -14.66243798	     16.03337072	     33.58909911	     10.24577200	      5.18059872	     -9.37083100
      6.08500000	     -7.83798680	     -7.10202596	     11.69288935	     -1.05885059	     -0.02239033	     -0.31075821	     30.36473117	      3.67409945	     -7.30273772	    -20.04648739	     -7.79932816	     -2.20283708	     10.82803442	     -1.16228547	    -10.35577363	      8.73233783	    -33.45488545	    -16.32377743	     16.24591372	     33.45036667	     10.38197875	      5.43680093	     -9.33575764
      6.09000000	     -7.84290936	     -7.27356915	     11.54173499	     -1.05258154	     -0.02194088	     -0.30971533	     30.06638741	      4.10320643	     -7.05744254	    -20.13898319	     -7.49366292	     -2.41446307	     10.87989645	     -0.67787595	    -10.71017843	      8.23461753	    -34.59849361	    -17.99942809	     16.38521381	     33.34363859	     10.56047599	      5.68076973	     -9.22659733
